<svg width="72" height="72" viewBox="0 0 36 36" fill="none" xmlns="http://www.w3.org/2000/svg">
<path d="M0 18C0 12.4087 0 9.61305 0.913445 7.4078C2.13137 4.46746 4.46746 2.13137 7.4078 0.913445C9.61305 0 12.4087 0 18 0V0C23.5913 0 26.3869 0 28.5922 0.913445C31.5325 2.13137 33.8686 4.46746 35.0866 7.4078C36 9.61305 36 12.4087 36 18V18C36 23.5913 36 26.3869 35.0866 28.5922C33.8686 31.5325 31.5325 33.8686 28.5922 35.0866C26.3869 36 23.5913 36 18 36V36C12.4087 36 9.61305 36 7.4078 35.0866C4.46746 33.8686 2.13137 31.5325 0.913445 28.5922C0 26.3869 0 23.5913 0 18V18Z" fill="#0077FF"/>
<path fill-rule="evenodd" clip-rule="evenodd" d="M12.5172 0.0145264C22.5841 0.0145264 13.5059 0.0145264 23.5728 0.0145264C33.5497 0.0145264 35.9766 2.44256 35.9766 12.5144C35.9766 18.1798 35.9766 13.5036 35.9766 23.5755C35.9766 33.5574 33.5497 35.9855 23.4829 35.9855C13.4161 35.9855 22.4942 35.9855 12.4274 35.9855C2.36051 35.9855 0.0235677 33.5574 0.0235677 23.4856C0.0235677 13.4137 0.0235677 22.4964 0.0235677 12.4245C0.0235677 2.35264 2.45039 0.0145264 12.5172 0.0145264Z" fill="#0077FF"/>
<path fill-rule="evenodd" clip-rule="evenodd" d="M22.7034 7.15834C25.0981 8.14415 27.0991 9.89507 28.3939 12.1378L24.6759 14.2844C23.8552 12.8629 22.587 11.7531 21.0692 11.1283C19.5513 10.5035 17.8694 10.3988 16.2858 10.8305C14.7021 11.2622 13.306 12.2061 12.3154 13.5148C11.3247 14.8236 10.7952 16.4234 10.8095 18.0648C10.8238 19.7061 11.3811 21.2965 12.3945 22.5878C13.4079 23.879 14.8202 24.7984 16.4111 25.2025C18.002 25.6065 19.6819 25.4725 21.1886 24.8213C22.6953 24.17 23.944 23.0383 24.7397 21.6027L28.4946 23.6841C27.2391 25.9491 25.269 27.7347 22.8919 28.7621C20.5147 29.7895 17.8643 30.001 15.3543 29.3635C12.8443 28.7261 10.616 27.2755 9.01718 25.2383C7.41838 23.201 6.53905 20.6918 6.51647 18.1022C6.49388 15.5126 7.32931 12.9884 8.89233 10.9236C10.4554 8.85884 12.658 7.36964 15.1565 6.68848C17.655 6.00732 20.3087 6.17253 22.7034 7.15834ZM22.2185 17.9078C22.2185 20.2644 20.3463 22.1261 18.0003 22.1261C15.6542 22.1261 13.782 20.2644 13.782 17.9078C13.782 15.5512 15.6542 13.6895 18.0003 13.6895C20.3463 13.6895 22.2185 15.5512 22.2185 17.9078Z" fill="white"/>
</svg>
