<svg width="72" height="72" viewBox="0 0 38 38" fill="none" xmlns="http://www.w3.org/2000/svg">
<path d="M1 19C1 10.5147 1 6.27208 3.63604 3.63604C6.27208 1 10.5147 1 19 1V1C27.4853 1 31.7279 1 34.364 3.63604C37 6.27208 37 10.5147 37 19V19C37 27.4853 37 31.7279 34.364 34.364C31.7279 37 27.4853 37 19 37V37C10.5147 37 6.27208 37 3.63604 34.364C1 31.7279 1 27.4853 1 19V19Z" fill="white"/>
<path d="M19.728 32.3469C21.6694 26.3841 26.3841 21.704 32.3469 19.728C32.7629 19.5893 32.9709 19.1387 32.8322 18.7573C32.7629 18.5147 32.5895 18.3413 32.3469 18.272C26.3495 16.3306 21.6694 11.6506 19.728 5.65312C19.5893 5.23712 19.1387 5.02911 18.7573 5.16778C18.5147 5.23712 18.3413 5.41045 18.272 5.65312C16.296 11.6506 11.6159 16.3306 5.65312 18.272C5.23712 18.4107 5.02911 18.8613 5.16778 19.2427C5.23712 19.4853 5.41045 19.6587 5.65312 19.728C11.6159 21.6694 16.296 26.3495 18.272 32.3469C18.4107 32.7629 18.8613 32.9709 19.2427 32.8322C19.4507 32.7629 19.624 32.5896 19.728 32.3469Z" fill="url(#paint0_radial_2119_22192)"/>
<path opacity="0.8" d="M5.65332 19.728C11.6161 21.6694 16.2962 26.3495 18.2722 32.3469C18.4109 32.7629 18.8615 32.9709 19.2429 32.8322C19.4855 32.7629 19.6589 32.5896 19.7282 32.3469C21.6696 26.3841 26.3843 21.7041 32.3471 19.728C29.5044 20.664 24.7203 21.3921 19.0002 21.3921C13.2801 21.3921 8.46136 20.664 5.65332 19.728Z" fill="url(#paint1_radial_2119_22192)"/>
<path d="M3.63604 34.364L3.28249 34.7175L3.63604 34.364ZM34.364 34.364L34.7175 34.7175L34.364 34.364ZM3.63604 3.63604L3.28249 3.28249L3.63604 3.63604ZM19 36.5C14.7432 36.5 11.6009 36.4989 9.19118 36.175C6.7958 35.8529 5.19923 35.22 3.98959 34.0104L3.28249 34.7175C4.70889 36.1439 6.55166 36.8291 9.05793 37.166C11.5498 37.5011 14.7715 37.5 19 37.5V36.5ZM0.5 19C0.5 23.2285 0.498938 26.4502 0.833963 28.9421C1.17092 31.4483 1.85608 33.2911 3.28249 34.7175L3.98959 34.0104C2.77996 32.8008 2.1471 31.2042 1.82505 28.8088C1.50106 26.3991 1.5 23.2568 1.5 19H0.5ZM36.5 19C36.5 23.2568 36.4989 26.3991 36.175 28.8088C35.8529 31.2042 35.22 32.8008 34.0104 34.0104L34.7175 34.7175C36.1439 33.2911 36.8291 31.4483 37.166 28.9421C37.5011 26.4502 37.5 23.2285 37.5 19H36.5ZM19 37.5C23.2285 37.5 26.4502 37.5011 28.9421 37.166C31.4483 36.8291 33.2911 36.1439 34.7175 34.7175L34.0104 34.0104C32.8008 35.22 31.2042 35.8529 28.8088 36.175C26.3991 36.4989 23.2568 36.5 19 36.5V37.5ZM19 1.5C23.2568 1.5 26.3991 1.50106 28.8088 1.82505C31.2042 2.1471 32.8008 2.77996 34.0104 3.98959L34.7175 3.28249C33.2911 1.85608 31.4483 1.17092 28.9421 0.833963C26.4502 0.498938 23.2285 0.5 19 0.5V1.5ZM37.5 19C37.5 14.7715 37.5011 11.5498 37.166 9.05793C36.8291 6.55166 36.1439 4.70889 34.7175 3.28249L34.0104 3.98959C35.22 5.19923 35.8529 6.7958 36.175 9.19118C36.4989 11.6009 36.5 14.7432 36.5 19H37.5ZM19 0.5C14.7715 0.5 11.5498 0.498938 9.05793 0.833963C6.55166 1.17092 4.70889 1.85608 3.28249 3.28249L3.98959 3.98959C5.19923 2.77996 6.7958 2.1471 9.19118 1.82505C11.6009 1.50106 14.7432 1.5 19 1.5V0.5ZM1.5 19C1.5 14.7432 1.50106 11.6009 1.82505 9.19118C2.1471 6.7958 2.77996 5.19923 3.98959 3.98959L3.28249 3.28249C1.85608 4.70889 1.17092 6.55166 0.833963 9.05793C0.498938 11.5498 0.5 14.7715 0.5 19H1.5Z" fill="#E9E9E9"/>
<defs>
<radialGradient id="paint0_radial_2119_22192" cx="0" cy="0" r="1" gradientUnits="userSpaceOnUse" gradientTransform="translate(32.07 4.54901) scale(30.9317)">
<stop offset="0.2281" stop-color="#00FFFE"/>
<stop offset="0.3047" stop-color="#11F3FE"/>
<stop offset="0.4569" stop-color="#3ED3FE"/>
<stop offset="0.6706" stop-color="#86A0FF"/>
<stop offset="0.9352" stop-color="#E95AFF"/>
<stop offset="0.9531" stop-color="#F055FF"/>
</radialGradient>
<radialGradient id="paint1_radial_2119_22192" cx="0" cy="0" r="1" gradientUnits="userSpaceOnUse" gradientTransform="translate(28.3659 20.8551) scale(17.4798)">
<stop stop-color="#053BF2"/>
<stop offset="0.0908682" stop-color="#0F3CF3" stop-opacity="0.9091"/>
<stop offset="0.2469" stop-color="#2B3FF4" stop-opacity="0.7531"/>
<stop offset="0.4492" stop-color="#5844F7" stop-opacity="0.5508"/>
<stop offset="0.69" stop-color="#964BFA" stop-opacity="0.31"/>
<stop offset="0.9606" stop-color="#E454FE" stop-opacity="0.0393646"/>
<stop offset="1" stop-color="#F055FF" stop-opacity="0"/>
</radialGradient>
</defs>
</svg>
