<svg fill="none" height="72" viewBox="0 0 36 36" width="72" xmlns="http://www.w3.org/2000/svg"><path d="m.00000603 17.28c0-8.1468-.00000002-12.2184 2.52000397-14.75999 2.51999-2.541604 6.60239-2.52000397 14.75999-2.52000397h1.44c8.1468 0 12.2184-.00000002 14.76 2.52000397 2.5416 2.51999 2.52 6.60239 2.52 14.75999v1.44c0 8.1468 0 12.2184-2.52 14.76s-6.6024 2.52-14.76 2.52h-1.44c-8.1468 0-12.2184 0-14.75999-2.52-2.541604-2.52-2.52000397-6.6024-2.52000397-14.76z" fill="#f80"/><g fill="#fff"><path d="m18.0348 18.3549c3.0029 0 5.4509-2.448 5.4509-5.4509 0-3.00286-2.448-5.45088-5.4509-5.45088-3.0355 0-5.4835 2.44802-5.4835 5.45088 0 3.0029 2.448 5.4509 5.4835 5.4509zm0-7.703c1.2403 0 2.2522 1.0118 2.2522 2.2521 0 1.2404-1.0119 2.2522-2.2522 2.2522s-2.2522-1.0118-2.2522-2.2522c-.0326-1.2403.9793-2.2521 2.2522-2.2521z"/><path d="m20.2218 22.8267c1.1098-.2611 2.1869-.6855 3.1661-1.3056.7507-.457.9792-1.4688.4896-2.2196-.457-.7507-1.4688-.9792-2.2195-.4896-2.2196 1.4036-5.1246 1.4036-7.3441 0-.7507-.4569-1.7299-.2611-2.2195.4896-.4243.7508-.1959 1.73.5549 2.1869.9792.6202 2.0563 1.0445 3.1661 1.3056l-3.0356 3.0356c-.6201.6201-.6201 1.632 0 2.2521.3264.3264.7181.457 1.1424.457.4244 0 .816-.1632 1.1424-.457l3.0029-3.0028 3.0029 3.0028c.6202.6202 1.632.6202 2.2522 0 .6202-.6201.6202-1.632 0-2.2521z"/></g></svg>