<svg fill="none" height="72" viewBox="0 0 36 36" width="72" xmlns="http://www.w3.org/2000/svg"><path d="m0 17.28c0-8.14587.00000018-12.2188 2.5306-14.7494 2.5306-2.5306 6.60353-2.5306 14.7494-2.5306h1.44c8.1459 0 12.2188 0 14.7494 2.5306s2.5306 6.60353 2.5306 14.7494v1.44c0 8.1459 0 12.2188-2.5306 14.7494s-6.6035 2.5306-14.7494 2.5306h-1.44c-8.14587 0-12.2188 0-14.7494-2.5306-2.53059982-2.5306-2.5306-6.6035-2.5306-14.7494z" fill="#07f"/><path d="m19.2189 26.025c-8.1074 0-13.02618-5.6354-13.2189-15h4.1062c.128 6.879 3.2519 9.794 5.6465 10.3934v-10.3934h3.9351v5.9366c2.3098-.2565 4.7275-2.9567 5.5401-5.9366h3.8732c-.6199 3.6643-3.2519 6.3646-5.1115 7.4784 1.8611.9006 4.8555 3.2579 6.0104 7.5216h-4.2572c-.8989-2.8501-3.1009-5.0576-6.0536-5.3573v5.3573z" fill="#fff"/></svg>