<svg fill="none" height="72" viewBox="0 0 36 36" width="72" xmlns="http://www.w3.org/2000/svg"><path d="m0 18c0-8.48528 0-12.72792 2.63604-15.36396s6.87868-2.63604 15.36396-2.63604c8.4853 0 12.7279 0 15.364 2.63604 2.636 2.63604 2.636 6.87868 2.636 15.36396 0 8.4853 0 12.7279-2.636 15.364-2.6361 2.636-6.8787 2.636-15.364 2.636-8.48528 0-12.72792 0-15.36396-2.636-2.63604-2.6361-2.63604-6.8787-2.63604-15.364z" fill="#005ff9"/><path clip-rule="evenodd" d="m11.25 29.25h4.5v-2.25h-9c-.59625 0-1.16993-.2363-1.59068-.6593-.423-.4207-.65932-.9945-.65932-1.5907 0-3.897 0-11.853 0-15.75 0-.59625.23632-1.17.65932-1.59075.42075-.423.99443-.65925 1.59068-.65925h22.5c.5962 0 1.1699.23625 1.5907.65925.423.42075.6593.9945.6593 1.59075v15.75c0 .5962-.2363 1.17-.6593 1.5907-.4208.423-.9945.6593-1.5907.6593h-9v2.25h4.5v2.25h-13.5z" fill="#fff" fill-rule="evenodd"/><path d="m29.249 9.0022h-22.49998v15.75h22.49998z" fill="#ffad00"/></svg>